<svg width="16" height="16" xmlns="http://www.w3.org/2000/svg">
 <g id="Layer_1">
  <title>Layer 1</title>
  <path id="svg_1" d="m14.6216,5.89498c-0.00197,-1.08557 -0.88104,-1.96514 -1.96612,-1.96662l0,-0.00049l-6.0262,0c-0.24829,-0.79746 -0.98872,-1.38056 -1.87074,-1.38204l-1.41351,0c-1.08557,0.00098 -1.96514,0.88104 -1.96711,1.96662l0,6.97559c0.00197,1.08459 0.88154,1.96416 1.96711,1.96612l9.31094,0c1.0841,-0.00197 1.96416,-0.88154 1.96612,-1.96612l0,-5.59306l-0.00049,0zm-11.27658,-2.36633l1.41351,0c0.51427,-0.00197 0.9425,0.41004 0.97495,0.92234l0.02852,0.46068l6.89397,0c0.53738,0.00098 0.98183,0.44544 0.98282,0.98331l0,0.24337c-0.29057,-0.16962 -0.62342,-0.27385 -0.98331,-0.27434l-9.31094,0c-0.35989,0.00049 -0.69323,0.10521 -0.98331,0.27483l0,-1.62688c0.00147,-0.53787 0.44593,-0.98232 0.9838,-0.98331zm9.31045,8.9422l-9.31045,0c-0.53738,-0.00098 -0.98183,-0.44642 -0.9838,-0.98331l0,-3.65692l0.00049,0c0.00098,-0.53836 0.44544,-0.98282 0.98331,-0.9838l9.31094,0c0.53738,0.00098 0.97888,0.44298 0.98331,0.97888l0,3.66135c-0.00197,0.53836 -0.44642,0.98282 -0.9838,0.9838z" stroke-width="0" stroke="#000" fill="#2D6862"/>
  <rect stroke="#000" id="svg_2" height="2.15703" width="12.03624" y="9.8027" x="1.96031" stroke-width="0" fill="#2D6862"/>
  <rect stroke="#000" id="svg_3" height="0.99223" width="12.03624" y="8.29278" x="2.04659" stroke-width="0" fill="#2D6862"/>
 </g>
</svg>
