<svg width="16" height="16" xmlns="http://www.w3.org/2000/svg">
 <g id="Layer_1">
  <title>Layer 1</title>
  <path stroke-width="0" stroke="#000" id="svg_1" d="m2.52502,10.97909c-0.00352,-3.30397 -0.00704,-6.60794 -0.01057,-9.91191c3.18064,0.03797 6.37476,-0.08996 9.54463,0.09751c1.54577,0.42821 1.323,3.09384 1.2979,5.08486c-0.06781,1.50147 0.90314,4.47796 -1.61875,4.92536c-1.2573,0.00005 -1.26225,0.41919 -1.13391,1.17739c0.14893,1.13587 -0.28343,3.68037 -2.34887,2.06757l-5.73042,-3.44077l0,0zm9.73428,-1.08007c0.00511,-2.96985 -0.03752,-5.50355 -0.24853,-7.46026c-1.87484,-0.66557 -4.40827,-0.34167 -6.52954,-0.35178c-0.83387,0.31653 1.97807,1.36758 2.57446,1.7754c2.2641,0.87688 2.9396,2.47158 2.54864,4.27382c0,0.70106 0,1.40213 0,2.10319c0.41752,-0.00039 1.2813,-0.16185 1.65498,-0.34037l0,0z" fill="#CC7C65"/>
 </g>
</svg>
