<svg width="16" height="16" xmlns="http://www.w3.org/2000/svg">
 <g id="Layer_1">
  <title>Layer 1</title>
  <path stroke="#000" id="svg_3" d="m8.0104,1.64428c-3.55181,0 -6.43105,2.87924 -6.43105,6.43106c0,3.55182 2.87924,6.43106 6.43105,6.43106c3.55181,0 6.43105,-2.87924 6.43105,-6.43106c0,-3.55182 -2.87924,-6.43106 -6.43105,-6.43106zm-3.4288,2.6611c0.05398,0.02434 0.11283,0.04602 0.1239,0.06062c0.01726,0.02257 0.03982,0.09115 0.0115,0.10797c-0.02876,0.01726 -0.07389,0.0115 -0.08009,-0.03982c-0.00575,-0.05089 -0.0115,-0.05664 -0.07965,-0.07965c-0.00973,-0.0031 -0.01549,-0.00442 -0.02257,-0.00664c0.01549,-0.01416 0.03142,-0.02832 0.0469,-0.04248zm-0.22921,0.21859c0.01372,0.0385 0.05,0.05531 0,0.07522c-0.02655,0.01062 -0.05398,0.01239 -0.07699,0.00929c0.02566,-0.02788 0.05,-0.05752 0.07699,-0.08451zm3.65801,8.65454c-2.81464,0 -5.1036,-2.28897 -5.1036,-5.10316c0,-0.03761 0.00487,-0.07434 0.00575,-0.11239c0.00177,-0.00133 0.00354,-0.00265 0.00531,-0.00398c0.05708,-0.04513 0.12522,-0.15885 0.14779,-0.19912c0.02301,-0.03938 0.08009,-0.06814 0.05133,-0.11328c-0.02611,-0.04248 -0.12921,-0.10177 -0.18009,-0.11549c0.00442,-0.04381 0.01416,-0.08628 0.01991,-0.13009c0.02788,0.03407 0.06062,0.07522 0.09204,0.08584c0.05089,0.01681 0.22168,0.02301 0.25045,0.02301c0.02788,0 0.14779,0.00619 0.1708,-0.02832c0.02257,-0.03407 0.03982,-0.03407 0.06814,-0.03407c0.02832,0 0.07965,0.10221 0.11991,0.11372c0.03938,0.0115 0.11372,0.00575 0.10797,0.08009c-0.00531,0.07345 0.03407,0.13673 0.07389,0.14204c0.03982,0.00575 0.13098,-0.08584 0.13098,-0.08584s0,0.14248 -0.00531,0.19381c-0.00575,0.05044 0.06239,0.23894 0.06239,0.23894s0.0854,0.17567 0.10797,0.21593c0.02301,0.03982 0.11947,0.15929 0.11947,0.21062c0,0.05177 0.0115,0.13142 0.04602,0.13142s0.06858,-0.09115 0.10797,-0.14823c0.04027,-0.05664 0.05177,-0.13717 0.06858,-0.19381c0.01726,-0.05708 0.01726,-0.15929 0.01726,-0.19912c0,-0.04027 0.03363,-0.07434 0.11372,-0.10841c0.08009,-0.03407 0.13673,-0.13098 0.20487,-0.1823c0.06858,-0.05133 0.06283,-0.13673 0.2,-0.13673c0.13628,0 0.12478,0 0.15929,-0.03451c0.03407,-0.03407 0.06814,-0.05664 0.08496,0.00575c0.01726,0.06283 0.11372,0.15354 0.13098,0.17655c0.01726,0.02301 0.05133,0.0854 0.04602,0.15398c-0.00575,0.0677 0.00531,0.14779 0.03407,0.14779c0.02832,0 0.0854,-0.0969 0.0854,-0.0969s0.12522,-0.08496 0.11947,0.00619c-0.00619,0.09071 0.01106,0.18806 0.01106,0.24425c0,0.05752 0.10266,0.19381 0.10266,0.16018c0,-0.03496 0.04558,-0.13098 0.04558,-0.18275c0,-0.05044 0.02832,-0.02788 0.10221,0.02257c0.07389,0.05133 0.12522,0.15443 0.12522,0.15443s0.07434,0.06814 0.0854,0.0969c0.0115,0.02832 0.09115,-0.01106 0.10797,-0.04602c0.01726,-0.03363 0.02876,-0.05089 0.07389,-0.06239c0.04602,-0.0115 0.10221,-0.0115 0.11991,-0.07434c0.01726,-0.06283 0.06814,-0.13628 0,-0.22213c-0.06814,-0.0854 -0.10266,-0.14204 -0.15354,-0.1823c-0.05177,-0.03982 -0.09115,-0.14248 -0.09115,-0.14248s0.10797,-0.09646 0.14204,-0.13098c0.03496,-0.03407 0.0854,-0.01106 0.09159,0.02832c0.00575,0.04027 -0.05089,0.07434 -0.06239,0.15974c-0.0115,0.08496 0.06814,0.11372 0.09115,0.08496c0.02257,-0.02876 0.07965,-0.0969 0.07965,-0.11372c0,-0.01726 -0.03938,-0.0115 -0.04513,-0.07389c-0.00575,-0.06283 0.07345,-0.10841 0.10177,-0.09159c0.0292,0.01726 0.21106,-0.02257 0.29646,-0.06814s0.13628,-0.14248 0.18806,-0.1823c0.05133,-0.03938 0.22788,-0.1708 0.21637,-0.23319c-0.0115,-0.06283 0.00531,-0.14779 -0.03982,-0.22788c-0.04558,-0.07965 -0.10266,-0.13053 -0.12522,-0.16505c-0.02257,-0.03407 0.0969,-0.03982 0.15354,-0.09115c0.05708,-0.05133 0,-0.0969 -0.02832,-0.09115c-0.02832,0.00575 -0.10266,0.02301 -0.13098,0.01726c-0.02832,-0.00575 -0.04558,-0.03407 -0.09115,-0.06858c-0.04513,-0.03407 0.0115,-0.08496 0.04027,-0.0792c0.02832,0.00575 0.10177,-0.05708 0.13628,-0.0854c0.03407,-0.02832 0.0854,-0.05089 0.06814,-0.02257c-0.01681,0.02832 -0.05664,0.13098 -0.0115,0.13673c0.04602,0.00575 0.15398,-0.0854 0.17168,-0.07965c0.01681,0.00575 0.04513,0.07965 0.02832,0.11372c-0.01726,0.03407 -0.01726,0.09115 0.00575,0.0854c0.02257,-0.00575 0.06814,-0.05708 0.07965,-0.03982c0.01195,0.01726 0.06814,0.05133 0.03982,0.11372c-0.02788,0.06283 -0.0854,0.0854 -0.01726,0.12567c0.06814,0.03938 0.09115,0.00531 0.14248,-0.02301c0.05089,-0.02832 0.0854,-0.15354 0.05664,-0.19381c-0.02832,-0.03982 -0.09646,-0.11947 -0.09646,-0.14779c0,-0.02832 0.11372,-0.02832 0.11372,-0.07389s0.03982,-0.07965 0.07965,-0.0969c0.04027,-0.01726 0.09115,-0.09115 0.10797,-0.06814c0.01726,0.02301 0.11991,0.05133 0.14779,0.01726c0.02832,-0.03407 0.17699,-0.15929 0.2677,-0.22788c0.09115,-0.06814 0.12522,-0.14779 0.14867,-0.22788c0.02257,-0.07965 0.05664,-0.13098 0.04513,-0.19337l0,0c0.03407,0.07965 0.03982,0.13673 0.03407,0.19912c-0.00575,0.06283 0,0.19381 0.0115,0.21062c0.01106,0.01726 0.05708,0.05664 0.08496,0.04558c0.02832,-0.01106 -0.01106,-0.12522 -0.01106,-0.14779c0,-0.02301 0.03982,-0.05708 0.06283,-0.06283c0.02301,-0.00575 0,-0.10221 -0.02876,-0.14248c-0.02788,-0.03982 -0.06814,-0.06283 -0.04513,-0.06814c0.02257,-0.00575 0.05089,-0.05133 0.03407,-0.06283c-0.01726,-0.01106 -0.00619,-0.05133 -0.04558,-0.03982c-0.02876,0.00841 -0.10664,-0.00664 -0.10398,0.04204c-0.01637,-0.04867 -0.05133,-0.08097 -0.09558,-0.07611c-0.05133,0.00575 -0.08009,0.03407 -0.13098,0.03407s-0.01106,-0.07965 -0.03407,-0.07965c-0.02257,0 -0.07434,0.07389 -0.10221,0.03407c-0.02832,-0.03982 0.07965,-0.09115 0.16505,-0.11947c0.08496,-0.02832 0.22744,-0.19381 0.28496,-0.19956c0.05664,-0.00575 0.19912,0.0115 0.32434,0.00575c0.12522,-0.00575 0.16505,-0.05708 0.20487,-0.02832s0.12522,0.06283 0.17655,0.05708c0.05133,-0.00619 0.02832,0 0.10797,-0.05708c0.07965,-0.05708 0.15398,-0.0854 0.19381,-0.13098c0.03982,-0.04558 0.14823,-0.07965 0.15398,-0.03407c0.00619,0.04558 -0.0115,0.09115 0.03407,0.09115s0.11416,-0.04558 0.1708,-0.06814c0.05708,-0.02257 0.10221,-0.05133 0.10221,-0.05133s-0.23319,0.15929 -0.28983,0.19381c-0.05708,0.03407 -0.19381,0.05708 -0.25089,0.12522c-0.05664,0.06858 -0.09071,0.09115 -0.08496,0.16549c0.00619,0.07389 0.10221,0.1708 0.05664,0.23894c-0.04558,0.06814 -0.06239,0.16505 -0.06239,0.16505s0.06814,-0.0969 0.16505,-0.15929s0.15398,-0.14779 0.18806,-0.1823s0.13673,-0.04027 0.13673,-0.08009s0.02832,-0.09115 0.04602,-0.13673c0.01681,-0.04558 -0.03407,-0.03451 0,-0.09115c0.03363,-0.05708 0.02832,-0.10266 0.19912,-0.10266s0.11372,0.0115 0.25045,0.00575c0.13673,-0.00575 0.18761,-0.07389 0.31859,-0.10841c0.13098,-0.03407 0.23319,-0.05664 0.27345,-0.03938c0.03982,0.01681 0.10266,0.00531 0.06239,-0.03451c-0.03938,-0.03982 -0.13053,-0.0969 -0.0854,-0.10841c0.04602,-0.0115 0.09159,-0.01726 0.10885,-0.06283c0.01726,-0.04558 -0.06283,-0.12522 -0.01726,-0.1708c0.04602,-0.04558 -0.03407,-0.10221 -0.09159,-0.11372c-0.05664,-0.01106 -0.27876,0.0115 -0.32346,-0.01106c-0.04602,-0.02301 -0.11991,-0.05133 -0.14248,-0.03451c-0.02301,0.01726 -0.07434,0.10841 -0.07434,0.10841s-0.03982,0.01106 -0.07434,-0.03982c-0.03363,-0.05133 -0.22124,-0.04558 -0.27832,-0.04558s-0.11991,0.01106 -0.18275,0.01726c-0.06239,0.00575 -0.0969,0.02301 -0.14248,-0.01726c-0.04513,-0.03982 -0.10752,-0.05708 -0.13098,-0.07389c-0.02257,-0.01726 -0.14779,-0.01726 -0.24469,-0.00531c-0.09646,0.01106 -0.19381,0.01106 -0.19381,0.01106s-0.04602,-0.01726 -0.11372,-0.05708c-0.06814,-0.03982 -0.13673,-0.06814 -0.15974,-0.06814c-0.02257,0 -0.19868,0.02832 -0.2385,0c-0.04027,-0.02832 -0.08009,-0.04558 -0.10841,-0.04558s-0.05089,-0.04558 -0.01681,-0.04558s0.19337,-0.04558 0.19337,-0.04558s-0.04558,-0.06283 -0.10221,-0.06283c-0.05664,0 -0.15885,-0.02832 -0.18761,-0.02832s-0.00619,0.02832 -0.06283,0.01726c-0.05752,-0.0115 -0.11416,-0.03451 -0.14823,-0.0115c-0.03363,0.02257 -0.11416,0.05664 -0.02832,0.07965c0.0854,0.02301 0.16505,0 0.18806,0.03451c0.02301,0.03407 0,0.05089 0,0.07389s-0.04558,0.0854 -0.07389,0.0969c-0.02832,0.01106 -0.06328,-0.01726 -0.11947,0.01106c-0.05708,0.02832 -0.19956,0.00575 -0.21682,0.02301c-0.01681,0.01726 -0.05089,-0.04558 -0.07965,-0.03407c-0.02832,0.01106 -0.10266,0.0854 -0.14248,0.07965c-0.03938,-0.00575 -0.09115,-0.04558 -0.09115,-0.09115s-0.01681,-0.10266 -0.03407,-0.11416c-0.01681,-0.01106 -0.14248,-0.01726 -0.18806,-0.01106c-0.04558,0.00575 -0.18761,0.01681 -0.21106,0.03982c-0.02301,0.02301 -0.0854,0.03982 -0.12522,0.03982s-0.07389,-0.03982 -0.15929,-0.05133c-0.08496,-0.0115 -0.27301,-0.01726 -0.29602,-0.0115s-0.09646,-0.01106 -0.06858,-0.03407c0.02876,-0.02257 0.11372,-0.0969 0.06328,-0.13053c-0.05177,-0.03451 -0.16593,-0.03451 -0.21637,-0.03982c-0.05177,-0.00575 -0.10266,-0.01726 -0.18275,-0.00575c-0.08009,0.0115 -0.0969,0.05133 -0.13098,0.01726c-0.03407,-0.03407 0.0854,0.01726 -0.03407,-0.03407c-0.11947,-0.05133 -0.17655,-0.04558 -0.21106,-0.02832c-0.03407,0.01726 0.00575,0.01106 -0.08496,0.04558c-0.09115,0.03451 -0.14248,0.05133 -0.16549,0.05708c-0.02257,0.00531 -0.1646,-0.02876 -0.18186,-0.04027c-0.01681,-0.01106 -0.08009,0.00575 -0.13673,0.02832s-0.09867,0.05664 -0.15531,0.04558c-0.05708,-0.01195 -0.14823,-0.01195 -0.20531,0.01106c-0.05708,0.02257 -0.0969,0.02257 -0.15354,0.06239c-0.05752,0.03982 -0.16505,0.06283 -0.16505,0.06283s-0.02699,-0.00133 -0.05974,-0.0031c0.89647,-0.77877 2.0633,-1.25444 3.34163,-1.25444c2.81464,0 5.1036,2.28897 5.1036,5.1036s-2.28941,5.10316 -5.1036,5.10316zm-0.49204,-3.36863c0,0 0.09159,-0.0115 0.09159,-0.05177c0,-0.03938 -0.09159,-0.09071 -0.12478,-0.04513c-0.03451,0.04513 -0.0969,0.09071 -0.09159,0.13098c0.00841,0.06239 0.12478,-0.03407 0.12478,-0.03407zm-0.00575,-1.28187c-0.08009,0.1031 -0.07389,0.08053 -0.13098,0.05664c-0.05664,-0.02212 -0.14779,0.05133 -0.13098,0.08053c0.01726,0.02832 0.14248,-0.00619 0.1708,0.04513c0.02876,0.05133 0.02876,0.05708 0.0854,0.04602c0.05664,-0.0115 0.11372,-0.09071 0.0969,-0.13053c-0.01681,-0.04115 -0.09115,-0.09779 -0.09115,-0.09779zm-0.01681,0.54071c-0.02257,0 -0.1823,0.02832 -0.19956,0.03496c-0.01726,0.00575 -0.11947,-0.01106 -0.11947,-0.01106c-0.03982,0.03938 -0.0115,0.0792 0.05133,0.07345s0.19381,-0.02301 0.22213,-0.02301c0.02876,0 0.06814,-0.07434 0.04558,-0.07434zm-0.24469,-1.58276c-0.08407,0.01327 -0.13628,0.19381 -0.06858,0.18806c0.06858,-0.00531 0.14248,-0.19912 0.06858,-0.18806zm0.19912,1.01373c-0.02301,-0.02832 -0.08009,-0.11991 -0.14292,-0.0969c-0.01858,0.00752 -0.0677,0.10841 -0.00531,0.10841c0.06283,0 0.17124,0.01681 0.14823,-0.0115zm0.05133,-0.06814c0.10266,-0.00575 0.07389,-0.10841 -0.00575,-0.11372c-0.02257,-0.00177 -0.0969,0.11947 0.00575,0.11372zm1.21285,0.93939c-0.0854,-0.01726 -0.10797,-0.04513 -0.19912,-0.09071c-0.09159,-0.04558 -0.29646,-0.04558 -0.30177,-0.01726c-0.00619,0.02832 0,0 -0.06858,-0.02212c-0.0677,-0.02389 -0.11991,0 -0.13673,-0.04027c-0.01681,-0.04027 -0.05664,-0.05177 -0.10797,-0.00088c-0.04292,0.04292 -0.06283,0.04602 0.03451,0.06328c0.09646,0.01726 0.12522,0.01726 0.08496,0.06239c-0.03982,0.04602 -0.06814,0.1031 -0.03407,0.10797c0.03407,0.00664 0.13673,-0.02212 0.14779,0c0.0115,0.02389 -0.02257,0.02832 0.09159,0.04646c0.11416,0.01637 0.13673,0.05664 0.15885,0.07876c0.02257,0.02301 0.09115,0.09735 0.04602,0.09735c-0.04602,0 -0.0969,0.05664 -0.06283,0.06328c0.03407,0.00575 0.13673,-0.01726 0.14204,0c0.00619,0.01637 0.06328,0.12522 0.11991,0.11991c0.05708,-0.00575 0.09115,-0.10797 0.11947,-0.13717c0.02876,-0.02832 0.14248,-0.04602 0.15443,0.00531c0.0115,0.05133 0.04602,0.1031 0.11372,0.13761c0.06814,0.03363 0.14823,0.06814 0.15398,0.03938c0.00575,-0.02832 -0.03407,-0.13673 -0.08009,-0.1531c-0.04558,-0.01814 -0.12478,-0.1146 -0.12478,-0.15398c0,-0.04027 -0.06858,-0.05177 -0.10266,-0.08053c-0.03451,-0.02876 -0.06328,-0.10841 -0.14867,-0.12567zm-4.22527,-0.84293c-0.03717,0.01637 -0.06858,0.21062 0,0.23319c0.06814,0.02301 0.10797,-0.09071 0.0854,-0.11991c-0.02301,-0.02699 -0.03407,-0.1354 -0.0854,-0.11328zm3.26862,0.48408c-0.05221,-0.02212 -0.14823,0.18761 -0.08009,0.20487c0.06858,0.0177 0.11947,-0.18761 0.08009,-0.20487zm0.11416,-1.95312c0.03407,0 0.07965,-0.02257 0.07965,-0.0854c0,-0.06283 0.07965,0 0.11947,-0.00575s0.06239,-0.04558 0.07965,-0.09115c0.00221,-0.00575 0.00354,-0.00929 0.00398,-0.01195c-0.00133,0.01062 -0.00044,0.04115 0.04204,0.05177c0.06814,0.01681 0.09071,-0.02832 0.09071,-0.04558s0.12522,-0.04558 0.14867,-0.06283c0.02257,-0.01681 0.11416,-0.04558 0.11947,-0.06814c0.00575,-0.02257 0,-0.15398 0.02832,-0.16505c0.02832,-0.0115 0.06814,-0.0115 0.02301,-0.09115c-0.04602,-0.08009 -0.04602,-0.15398 -0.10266,-0.11991c-0.04204,0.02522 -0.01681,0.12567 -0.05089,0.19381s-0.06283,0.13098 -0.0854,0.13098s-0.14204,0.04558 -0.17655,0.07965c-0.03363,0.03407 -0.19912,-0.02832 -0.22168,0c-0.02301,0.02832 -0.06814,0.06239 -0.0969,0.0854c-0.02876,0.02257 -0.10841,0.00575 -0.09159,0.07389c0.01593,0.06903 0.0562,0.13142 0.09071,0.13142zm0.77966,-0.72877c0.07965,-0.00575 0.15398,-0.02832 0.15398,-0.02832s0.11991,0.00575 0.10266,-0.05133c-0.0177,-0.05664 -0.14248,-0.06239 -0.16593,-0.05664c-0.02257,0.00575 -0.06283,-0.06283 -0.10797,-0.05133c-0.04248,0.01018 -0.05664,0.06858 -0.05664,0.0854c0,0.01726 -0.15929,0.05089 -0.10841,0.0969c0.05133,0.04513 0.1031,0.01106 0.1823,0.00531zm-1.56595,3.09827c0.04602,0.02832 0.13098,-0.0969 0.15443,-0.05752c0.02257,0.04027 -0.00575,0.05752 0.03363,0.10885c0.04027,0.05044 0.11416,0.04513 0.11416,0.04513s-0.00575,-0.13673 -0.06858,-0.17124c-0.06283,-0.03407 -0.10266,-0.07345 -0.02832,-0.06239c0.07389,0.0115 0.11372,-0.01726 0.0969,-0.05044c-0.01726,-0.03451 -0.12522,-0.01726 -0.15974,-0.0115s-0.0854,-0.02301 -0.0854,-0.02301c-0.03407,0.01062 -0.02788,0.03938 -0.03982,0.0969c-0.0115,0.0562 -0.06283,0.09602 -0.01726,0.12522zm3.10358,1.13276c-0.10221,-0.02301 -0.03407,0.01726 0,0.06814c0.03407,0.05133 0.10266,0.07788 0.11416,0.02212c0.00487,-0.02788 -0.01195,-0.06726 -0.11416,-0.09027zm0.4385,1.3832c-0.03407,0.02832 0,0.04027 -0.0969,0.09735c-0.09735,0.05752 -0.21682,0.11991 -0.23938,0.1708c-0.02301,0.05133 0.02257,0.08009 0.11416,0.08496c0.09115,0.00575 0.06814,0.02345 0.13098,-0.04558s0.11991,-0.10797 0.19381,-0.16505c0.07434,-0.05664 0.07434,-0.14248 0.07434,-0.14248s-0.08009,-0.07876 -0.0854,-0.06239c-0.00973,0.02743 -0.05752,0.03451 -0.09159,0.06239zm-1.50931,-1.3832c0.00619,-0.05133 -0.0969,-0.05133 -0.14779,-0.09159c-0.05133,-0.03938 -0.05664,-0.15885 -0.0854,-0.22788c-0.02832,-0.0677 -0.08496,-0.11372 -0.14248,-0.17567c-0.05664,-0.06328 -0.08496,-0.20575 -0.10177,-0.19381c-0.01726,0.01106 -0.06814,0.17655 -0.02832,0.22788c0.03982,0.05133 -0.01726,0.15398 -0.04558,0.22257c-0.02876,0.0677 -0.09735,-0.0115 -0.15443,-0.04602c-0.05708,-0.03451 -0.13628,-0.05664 -0.17611,-0.0969c-0.03982,-0.04027 0.06858,-0.14823 0.04027,-0.1885c-0.02876,-0.03982 -0.1823,-0.00575 -0.19912,-0.00575c-0.01726,0 -0.05133,-0.05664 -0.08584,-0.05664c-0.03407,0 -0.02832,0.11416 -0.02832,0.11416s-0.03451,-0.04027 -0.0854,-0.09159c-0.05177,-0.05089 0.00531,0.03407 -0.04558,0.0854c-0.05177,0.05177 -0.03496,0.03451 -0.05708,0.09115c-0.02257,0.05708 -0.07389,0.03407 -0.12522,-0.02301c-0.05133,-0.05664 -0.0792,-0.01637 -0.11416,0c-0.03407,0.01726 -0.06239,0.1146 -0.07965,0.13673c-0.01726,0.02301 -0.13673,0.05177 -0.16549,0.08053c-0.02832,0.02743 -0.03982,0.11947 -0.03982,0.14248c0,0.02212 -0.11991,0.01018 -0.15974,0.03938c-0.03982,0.02832 -0.10177,0.01106 -0.14204,0.01106c-0.03982,0 -0.17655,0.10797 -0.22213,0.13628c-0.04558,0.0292 -0.04558,0.13186 -0.02257,0.16018c0.02257,0.02788 0.06814,0.0969 0.03982,0.10797c-0.02832,0.0115 -0.04602,0.09115 0.02257,0.15885c0.06814,0.06858 0.04558,0.08584 0.05089,0.11991c0.00619,0.03407 0.03451,0.04602 0.08009,0.10266c0.04513,0.05664 -0.08009,0.10221 -0.0969,0.13717c-0.01726,0.03363 0.04027,0.08496 0.07389,0.11372c0.03407,0.02788 0.11991,0.0115 0.1708,-0.00575c0.05177,-0.01726 0.10841,-0.06328 0.14204,-0.06858c0.03496,-0.00575 0.19381,-0.0115 0.19381,-0.0115s0.05708,-0.08496 0.0969,-0.13098c0.03938,-0.04513 0.1646,-0.00575 0.1646,-0.00575s0.05177,-0.03363 0.1885,-0.06239c0.13673,-0.02876 0.0792,0.02832 0.13098,0.04602c0.05089,0.01637 0.11947,0.02743 0.15885,0.05664c0.03982,0.02832 0,0.09646 -0.00531,0.12522c-0.00619,0.02832 0.0969,0.01681 0.10177,-0.0115c0.00619,-0.02832 0.03407,-0.05664 0.09159,-0.09071c0.05664,-0.03451 0.01106,0.05044 0.03363,0.10221c0.02301,0.05133 0.05708,-0.06947 0.05708,-0.0115c0,0.01726 0.01726,0.03451 0.02257,0.05133c0.00619,0.01726 0.08009,0.02301 0.08009,0.07965c0,0.05752 0,0.09159 0.01726,0.10221c0.01681,0.0115 0.10797,0 0.14823,0.06858c0.03938,0.06814 0.06814,0.00575 0.09071,-0.02301c0.02301,-0.02832 0.10221,0.0115 0.12522,0.03451c0.02301,0.02212 0.0854,-0.04602 0.17124,-0.06858c0.08496,-0.02257 0.07389,-0.01726 0.0969,-0.05089c0.02257,-0.03451 0.03982,-0.12522 0.09071,-0.19381c0.05089,-0.0677 0.11991,-0.18761 0.11991,-0.27921c0,-0.09115 -0.00619,-0.30177 -0.06858,-0.39779c-0.06239,-0.0969 -0.18142,-0.19425 -0.17611,-0.24514zm-0.21018,1.39471c-0.02876,-0.00575 -0.09159,-0.02743 -0.09159,-0.02743c-0.06283,0.06239 0.06283,0.06239 0.04602,0.12522c-0.01726,0.06239 0.0854,0.03938 0.11372,0.02832c0.02788,-0.01195 0.09735,-0.14292 0.0854,-0.17655c-0.01106,-0.03496 -0.12522,0.0562 -0.15354,0.05044zm2.11242,-0.26195c-0.02301,0 -0.03407,0.02832 -0.08496,0c-0.05177,-0.02788 -0.04027,-0.01637 -0.07434,-0.07389c-0.03407,-0.0562 -0.04027,-0.13098 -0.0969,-0.10177c-0.02257,0.01106 0,0.07434 0.02257,0.09646c0.02345,0.02301 0.03407,0.10221 0.02832,0.12522c-0.00531,0.02301 -0.10221,0.05133 -0.05708,0.07965c0.04602,0.02832 0.13142,0 0.11991,0.03451c-0.01106,0.03407 -0.05708,0.0792 -0.00575,0.09071c0.05089,0.01106 0.06814,-0.03938 0.09159,-0.07876c0.02257,-0.04115 0.03938,-0.07478 0.0792,-0.09779c0.03982,-0.02301 0,-0.07434 -0.02257,-0.07434zm0.00531,-1.32657c0.07434,0.02832 0.20531,-0.10221 0.15354,-0.11947c-0.05089,-0.01726 -0.15354,0.11947 -0.15354,0.11947zm-3.93456,-0.56372c-0.01283,0.05089 0.0854,0.07389 0.09115,0.01726c0.00531,-0.05708 -0.07965,-0.06283 -0.09115,-0.01726zm0.15354,-1.52037c-0.02832,0.02876 -0.11372,0.0854 -0.12522,0.13717c-0.01106,0.05089 0.13673,-0.08053 0.17655,-0.13098c0.04027,-0.05177 0.11947,-0.02301 0.13628,-0.05177c0.0177,-0.02788 0.0177,-0.02788 0.0177,-0.02788s-0.06283,-0.01106 -0.11372,-0.02788c-0.05177,-0.01726 -0.11416,0.04513 -0.0854,-0.04602c0.02832,-0.09115 0.11372,-0.07389 0.0969,-0.14248c-0.01726,-0.06814 -0.07434,-0.0854 -0.09159,-0.0854c-0.03982,0 0.00575,0.06239 -0.05133,0.10221c-0.05664,0.03982 -0.11991,0.05664 -0.0854,0.12522c0.03407,0.06814 0.15354,0.11903 0.12522,0.14779zm-0.44956,1.45179c0.00575,-0.03363 -0.06283,-0.08496 -0.09115,-0.08496c-0.02876,0 -0.1708,-0.03407 -0.1708,-0.03407c-0.02566,0.01018 -0.05974,0.01991 -0.06991,0.03407c-0.0031,-0.00487 -0.00973,-0.01062 -0.02168,-0.01726c-0.06283,-0.03319 -0.13673,0 -0.15974,-0.04513c-0.02212,-0.04602 -0.0562,-0.04602 -0.0792,-0.01726c-0.04159,0.05177 0.01106,0.09115 0.02788,0.10221c0.01681,0.01062 0.08009,0.02301 0.13673,0.01726c0.0354,-0.00354 0.08009,-0.01195 0.09292,-0.02611c0.00177,0.00619 0.00708,0.01195 0.01549,0.01947c0.04558,0.04071 0.07389,0.05752 0.14204,0.05133c0.06903,-0.00442 0.17168,0.03496 0.17744,0.00044zm-0.16505,-0.33584c0.02876,0 0.0854,0 0.12522,0.0115c0.03982,0.01106 0.1708,0.02212 0.16505,-0.02832c-0.00575,-0.05089 -0.01681,-0.13142 0.03938,-0.18186c0.05752,-0.05177 0.11372,-0.07965 0.0854,-0.15398c-0.02788,-0.07389 -0.0854,-0.11991 -0.04558,-0.15443c0.03982,-0.03363 0.08496,-0.04513 0.08496,-0.07345c0,-0.02876 -0.09602,0.07965 -0.10797,-0.10885c-0.00221,-0.04027 -0.09115,0.01106 -0.0969,0.05133c-0.00531,0.04027 0.06283,0.07389 -0.04558,0.07389c-0.10841,0 -0.11372,0.08584 -0.13673,0.10266c-0.02301,0.01726 -0.04558,0.02257 -0.09159,0.03363c-0.04513,0.0115 -0.0562,0.05752 -0.0677,0.08584c-0.01106,0.02788 -0.09115,-0.05133 -0.11372,-0.02832c-0.02257,0.02301 -0.00575,0.13098 0.03407,0.22168c0.04071,0.09159 0.14292,0.14867 0.17168,0.14867zm-0.39912,-0.02832c0.02876,-0.03407 0.01681,-0.08496 -0.02788,-0.07965c-0.04558,0.00575 -0.0854,-0.07434 -0.15929,-0.12522c-0.07434,-0.05044 -0.13098,-0.08584 -0.19956,-0.15929c-0.06814,-0.07389 -0.15354,-0.11991 -0.19912,-0.15885c-0.04602,-0.04027 -0.11372,-0.05752 -0.14248,-0.05133c-0.07035,0.01416 0.10221,0.13673 0.11991,0.1531c0.01726,0.01814 0.17124,0.14823 0.17124,0.21151s0.10221,0.21062 0.13098,0.23319c0.02832,0.02301 0.17036,0.10797 0.19337,0.15398c0.02301,0.04558 0.07389,0.05752 0.07389,-0.00575c-0.00044,-0.06283 0.01106,-0.13717 0.03894,-0.17168zm-0.43231,-0.64337c0.02832,0.10266 0.0854,0.20531 0.10797,0.24558c0.02301,0.03938 0.11991,0.09602 0.15398,0.12434c0.03407,0.02832 0.08496,-0.01062 0.06328,-0.04513c-0.02301,-0.03451 -0.06858,-0.08496 -0.07389,-0.12522c-0.00575,-0.04027 -0.03451,-0.1031 -0.08009,-0.17124c-0.04513,-0.0677 -0.08496,-0.08496 -0.11372,-0.13053c-0.02832,-0.04602 -0.13098,-0.13142 -0.13098,-0.13142c-0.04513,0.00575 -0.04513,0.09071 -0.02257,0.11991c0.02168,0.02788 0.0677,0.0115 0.09602,0.11372z" opacity="NaN" stroke-width="0" fill="#426373"/>
  <path id="svg_4" d="m16.07225,17.02802c-0.04014,0 -0.07267,0.03254 -0.07267,0.07267c0,0.04014 0.03254,0.07267 0.07267,0.07267c0.04014,0 0.07267,-0.03254 0.07267,-0.07267c0,-0.04014 -0.03254,-0.07267 -0.07267,-0.07267zm-0.03875,0.03007c0.00061,0.00028 0.00128,0.00052 0.0014,0.00069c0.0002,0.00026 0.00045,0.00103 0.00013,0.00122c-0.00033,0.0002 -0.00084,0.00013 -0.00091,-0.00045c-0.00007,-0.00058 -0.00013,-0.00064 -0.0009,-0.0009c-0.00011,-0.00004 -0.00018,-0.00005 -0.00026,-0.00008c0.00018,-0.00016 0.00036,-0.00032 0.00053,-0.00048zm-0.00259,0.00247c0.00016,0.00044 0.00057,0.00063 0,0.00085c-0.0003,0.00012 -0.00061,0.00014 -0.00087,0.00011c0.00029,-0.00032 0.00057,-0.00065 0.00087,-0.00096zm0.04134,0.0978c-0.03181,0 -0.05767,-0.02587 -0.05767,-0.05767c0,-0.00043 0.00006,-0.00084 0.00007,-0.00127c0.00002,-0.00002 0.00004,-0.00003 0.00006,-0.00005c0.00065,-0.00051 0.00142,-0.0018 0.00167,-0.00225c0.00026,-0.00045 0.00091,-0.00077 0.00058,-0.00128c-0.0003,-0.00048 -0.00146,-0.00115 -0.00204,-0.00131c0.00005,-0.0005 0.00016,-0.00098 0.00023,-0.00147c0.00032,0.00039 0.00069,0.00085 0.00104,0.00097c0.00058,0.00019 0.00251,0.00026 0.00283,0.00026c0.00032,0 0.00167,0.00007 0.00193,-0.00032c0.00026,-0.00039 0.00045,-0.00039 0.00077,-0.00039c0.00032,0 0.0009,0.00116 0.00136,0.00129c0.00045,0.00013 0.00129,0.00007 0.00122,0.00091c-0.00006,0.00083 0.00039,0.00155 0.00084,0.00161c0.00045,0.00007 0.00148,-0.00097 0.00148,-0.00097s0,0.00161 -0.00006,0.00219c-0.00007,0.00057 0.00071,0.0027 0.00071,0.0027s0.00097,0.00199 0.00122,0.00244c0.00026,0.00045 0.00135,0.0018 0.00135,0.00238c0,0.00059 0.00013,0.00149 0.00052,0.00149s0.00078,-0.00103 0.00122,-0.00168c0.00046,-0.00064 0.00059,-0.00155 0.00078,-0.00219c0.0002,-0.00065 0.0002,-0.0018 0.0002,-0.00225c0,-0.00046 0.00038,-0.00084 0.00129,-0.00123c0.00091,-0.00039 0.00155,-0.00148 0.00232,-0.00206c0.00078,-0.00058 0.00071,-0.00155 0.00226,-0.00155c0.00154,0 0.00141,0 0.0018,-0.00039c0.00039,-0.00039 0.00077,-0.00064 0.00096,0.00007c0.0002,0.00071 0.00129,0.00174 0.00148,0.002c0.0002,0.00026 0.00058,0.00097 0.00052,0.00174c-0.00007,0.00077 0.00006,0.00167 0.00039,0.00167c0.00032,0 0.00097,-0.0011 0.00097,-0.0011s0.00142,-0.00096 0.00135,0.00007c-0.00007,0.00103 0.00013,0.00213 0.00013,0.00276c0,0.00065 0.00116,0.00219 0.00116,0.00181c0,-0.0004 0.00052,-0.00148 0.00052,-0.00207c0,-0.00057 0.00032,-0.00032 0.00116,0.00026c0.00084,0.00058 0.00142,0.00175 0.00142,0.00175s0.00084,0.00077 0.00097,0.0011c0.00013,0.00032 0.00103,-0.00013 0.00122,-0.00052c0.0002,-0.00038 0.00033,-0.00058 0.00084,-0.00071c0.00052,-0.00013 0.00116,-0.00013 0.00136,-0.00084c0.0002,-0.00071 0.00077,-0.00154 0,-0.00251c-0.00077,-0.00097 -0.00116,-0.00161 -0.00174,-0.00206c-0.00059,-0.00045 -0.00103,-0.00161 -0.00103,-0.00161s0.00122,-0.00109 0.00161,-0.00148c0.0004,-0.00039 0.00097,-0.00013 0.00104,0.00032c0.00007,0.00046 -0.00058,0.00084 -0.00071,0.00181c-0.00013,0.00096 0.00077,0.00129 0.00103,0.00096c0.00026,-0.00033 0.0009,-0.0011 0.0009,-0.00129c0,-0.0002 -0.00045,-0.00013 -0.00051,-0.00084c-0.00007,-0.00071 0.00083,-0.00123 0.00115,-0.00104c0.00033,0.0002 0.00239,-0.00026 0.00335,-0.00077s0.00154,-0.00161 0.00213,-0.00206c0.00058,-0.00045 0.00258,-0.00193 0.00245,-0.00264c-0.00013,-0.00071 0.00006,-0.00167 -0.00045,-0.00258c-0.00052,-0.0009 -0.00116,-0.00148 -0.00142,-0.00187c-0.00026,-0.00039 0.0011,-0.00045 0.00174,-0.00103c0.00065,-0.00058 0,-0.0011 -0.00032,-0.00103c-0.00032,0.00007 -0.00116,0.00026 -0.00148,0.0002c-0.00032,-0.00007 -0.00052,-0.00039 -0.00103,-0.00078c-0.00051,-0.00039 0.00013,-0.00096 0.00046,-0.0009c0.00032,0.00007 0.00115,-0.00065 0.00154,-0.00097c0.00039,-0.00032 0.00097,-0.00058 0.00077,-0.00026c-0.00019,0.00032 -0.00064,0.00148 -0.00013,0.00155c0.00052,0.00007 0.00174,-0.00097 0.00194,-0.0009c0.00019,0.00007 0.00051,0.0009 0.00032,0.00129c-0.0002,0.00039 -0.0002,0.00103 0.00007,0.00097c0.00026,-0.00007 0.00077,-0.00065 0.0009,-0.00045c0.00014,0.0002 0.00077,0.00058 0.00045,0.00129c-0.00032,0.00071 -0.00097,0.00097 -0.0002,0.00142c0.00077,0.00045 0.00103,0.00006 0.00161,-0.00026c0.00058,-0.00032 0.00097,-0.00174 0.00064,-0.00219c-0.00032,-0.00045 -0.00109,-0.00135 -0.00109,-0.00167c0,-0.00032 0.00129,-0.00032 0.00129,-0.00084s0.00045,-0.0009 0.0009,-0.0011c0.00046,-0.0002 0.00103,-0.00103 0.00122,-0.00077c0.0002,0.00026 0.00136,0.00058 0.00167,0.0002c0.00032,-0.00039 0.002,-0.0018 0.00303,-0.00258c0.00103,-0.00077 0.00142,-0.00167 0.00168,-0.00258c0.00026,-0.0009 0.00064,-0.00148 0.00051,-0.00219l0,0c0.00039,0.0009 0.00045,0.00155 0.00039,0.00225c-0.00007,0.00071 0,0.00219 0.00013,0.00238c0.00013,0.0002 0.00065,0.00064 0.00096,0.00052c0.00032,-0.00013 -0.00013,-0.00142 -0.00013,-0.00167c0,-0.00026 0.00045,-0.00065 0.00071,-0.00071c0.00026,-0.00007 0,-0.00116 -0.00033,-0.00161c-0.00032,-0.00045 -0.00077,-0.00071 -0.00051,-0.00077c0.00026,-0.00007 0.00058,-0.00058 0.00039,-0.00071c-0.0002,-0.00013 -0.00007,-0.00058 -0.00052,-0.00045c-0.00033,0.0001 -0.00121,-0.00008 -0.00118,0.00048c-0.00019,-0.00055 -0.00058,-0.00092 -0.00108,-0.00086c-0.00058,0.00007 -0.00091,0.00039 -0.00148,0.00039s-0.00013,-0.0009 -0.00039,-0.0009c-0.00026,0 -0.00084,0.00084 -0.00116,0.00039c-0.00032,-0.00045 0.0009,-0.00103 0.00187,-0.00135c0.00096,-0.00032 0.00257,-0.00219 0.00322,-0.00226c0.00064,-0.00007 0.00225,0.00013 0.00367,0.00007c0.00142,-0.00007 0.00187,-0.00065 0.00232,-0.00032s0.00142,0.00071 0.002,0.00065c0.00058,-0.00007 0.00032,0 0.00122,-0.00065c0.0009,-0.00065 0.00174,-0.00097 0.00219,-0.00148c0.00045,-0.00052 0.00168,-0.0009 0.00174,-0.00039c0.00007,0.00052 -0.00013,0.00103 0.00039,0.00103s0.00129,-0.00052 0.00193,-0.00077c0.00065,-0.00026 0.00116,-0.00058 0.00116,-0.00058s-0.00264,0.0018 -0.00328,0.00219c-0.00065,0.00039 -0.00219,0.00065 -0.00284,0.00142c-0.00064,0.00078 -0.00103,0.00103 -0.00096,0.00187c0.00007,0.00084 0.00116,0.00193 0.00064,0.0027c-0.00052,0.00077 -0.00071,0.00187 -0.00071,0.00187s0.00077,-0.0011 0.00187,-0.0018s0.00174,-0.00167 0.00213,-0.00206s0.00155,-0.00046 0.00155,-0.00091s0.00032,-0.00103 0.00052,-0.00155c0.00019,-0.00052 -0.00039,-0.00039 0,-0.00103c0.00038,-0.00065 0.00032,-0.00116 0.00225,-0.00116s0.00129,0.00013 0.00283,0.00007c0.00155,-0.00007 0.00212,-0.00084 0.0036,-0.00123c0.00148,-0.00039 0.00264,-0.00064 0.00309,-0.00045c0.00045,0.00019 0.00116,0.00006 0.00071,-0.00039c-0.00045,-0.00045 -0.00148,-0.0011 -0.00097,-0.00123c0.00052,-0.00013 0.00104,-0.0002 0.00123,-0.00071c0.0002,-0.00052 -0.00071,-0.00142 -0.0002,-0.00193c0.00052,-0.00052 -0.00039,-0.00116 -0.00104,-0.00129c-0.00064,-0.00013 -0.00315,0.00013 -0.00366,-0.00013c-0.00052,-0.00026 -0.00136,-0.00058 -0.00161,-0.00039c-0.00026,0.0002 -0.00084,0.00123 -0.00084,0.00123s-0.00045,0.00013 -0.00084,-0.00045c-0.00038,-0.00058 -0.0025,-0.00052 -0.00315,-0.00052s-0.00136,0.00013 -0.00207,0.0002c-0.00071,0.00007 -0.0011,0.00026 -0.00161,-0.0002c-0.00051,-0.00045 -0.00122,-0.00065 -0.00148,-0.00084c-0.00026,-0.0002 -0.00167,-0.0002 -0.00277,-0.00006c-0.00109,0.00013 -0.00219,0.00013 -0.00219,0.00013s-0.00052,-0.0002 -0.00129,-0.00065c-0.00077,-0.00045 -0.00155,-0.00077 -0.00181,-0.00077c-0.00026,0 -0.00225,0.00032 -0.0027,0c-0.00046,-0.00032 -0.00091,-0.00052 -0.00123,-0.00052s-0.00058,-0.00052 -0.00019,-0.00052s0.00219,-0.00052 0.00219,-0.00052s-0.00052,-0.00071 -0.00116,-0.00071c-0.00064,0 -0.0018,-0.00032 -0.00212,-0.00032s-0.00007,0.00032 -0.00071,0.0002c-0.00065,-0.00013 -0.00129,-0.00039 -0.00168,-0.00013c-0.00038,0.00026 -0.00129,0.00064 -0.00032,0.0009c0.00097,0.00026 0.00187,0 0.00213,0.00039c0.00026,0.00039 0,0.00058 0,0.00084s-0.00052,0.00097 -0.00084,0.0011c-0.00032,0.00013 -0.00072,-0.0002 -0.00135,0.00013c-0.00065,0.00032 -0.00226,0.00007 -0.00245,0.00026c-0.00019,0.0002 -0.00058,-0.00052 -0.0009,-0.00039c-0.00032,0.00013 -0.00116,0.00097 -0.00161,0.0009c-0.00045,-0.00007 -0.00103,-0.00052 -0.00103,-0.00103s-0.00019,-0.00116 -0.00039,-0.00129c-0.00019,-0.00013 -0.00161,-0.0002 -0.00213,-0.00013c-0.00052,0.00007 -0.00212,0.00019 -0.00239,0.00045c-0.00026,0.00026 -0.00097,0.00045 -0.00142,0.00045s-0.00084,-0.00045 -0.0018,-0.00058c-0.00096,-0.00013 -0.00309,-0.0002 -0.00335,-0.00013s-0.00109,-0.00013 -0.00078,-0.00039c0.00033,-0.00026 0.00129,-0.0011 0.00072,-0.00148c-0.00059,-0.00039 -0.00188,-0.00039 -0.00245,-0.00045c-0.00059,-0.00007 -0.00116,-0.0002 -0.00207,-0.00007c-0.00091,0.00013 -0.0011,0.00058 -0.00148,0.0002c-0.00039,-0.00039 0.00097,0.0002 -0.00039,-0.00039c-0.00135,-0.00058 -0.002,-0.00052 -0.00239,-0.00032c-0.00039,0.0002 0.00007,0.00013 -0.00096,0.00052c-0.00103,0.00039 -0.00161,0.00058 -0.00187,0.00065c-0.00026,0.00006 -0.00186,-0.00033 -0.00206,-0.00046c-0.00019,-0.00013 -0.00091,0.00007 -0.00155,0.00032s-0.00112,0.00064 -0.00176,0.00052c-0.00065,-0.00014 -0.00168,-0.00014 -0.00232,0.00013c-0.00065,0.00026 -0.0011,0.00026 -0.00174,0.00071c-0.00065,0.00045 -0.00187,0.00071 -0.00187,0.00071s-0.00031,-0.00002 -0.00068,-0.00004c0.01013,-0.0088 0.02332,-0.01418 0.03776,-0.01418c0.03181,0 0.05767,0.02587 0.05767,0.05767s-0.02587,0.05767 -0.05767,0.05767zm-0.00556,-0.03807c0,0 0.00104,-0.00013 0.00104,-0.00059c0,-0.00045 -0.00104,-0.00103 -0.00141,-0.00051c-0.00039,0.00051 -0.0011,0.00103 -0.00104,0.00148c0.0001,0.00071 0.00141,-0.00039 0.00141,-0.00039zm-0.00007,-0.01449c-0.00091,0.00117 -0.00084,0.00091 -0.00148,0.00064c-0.00064,-0.00025 -0.00167,0.00058 -0.00148,0.00091c0.0002,0.00032 0.00161,-0.00007 0.00193,0.00051c0.00033,0.00058 0.00033,0.00065 0.00097,0.00052c0.00064,-0.00013 0.00129,-0.00103 0.0011,-0.00148c-0.00019,-0.00047 -0.00103,-0.00111 -0.00103,-0.00111zm-0.00019,0.00611c-0.00026,0 -0.00206,0.00032 -0.00226,0.0004c-0.0002,0.00007 -0.00135,-0.00013 -0.00135,-0.00013c-0.00045,0.00045 -0.00013,0.0009 0.00058,0.00083s0.00219,-0.00026 0.00251,-0.00026c0.00033,0 0.00077,-0.00084 0.00052,-0.00084zm-0.00277,-0.01789c-0.00095,0.00015 -0.00154,0.00219 -0.00078,0.00213c0.00078,-0.00006 0.00161,-0.00225 0.00078,-0.00213zm0.00225,0.01146c-0.00026,-0.00032 -0.00091,-0.00136 -0.00162,-0.0011c-0.00021,0.00009 -0.00077,0.00123 -0.00006,0.00123c0.00071,0 0.00194,0.00019 0.00168,-0.00013zm0.00058,-0.00077c0.00116,-0.00007 0.00084,-0.00123 -0.00007,-0.00129c-0.00026,-0.00002 -0.0011,0.00135 0.00007,0.00129zm0.01371,0.01062c-0.00097,-0.0002 -0.00122,-0.00051 -0.00225,-0.00103c-0.00104,-0.00052 -0.00335,-0.00052 -0.00341,-0.0002c-0.00007,0.00032 0,0 -0.00078,-0.00025c-0.00077,-0.00027 -0.00136,0 -0.00155,-0.00046c-0.00019,-0.00046 -0.00064,-0.00059 -0.00122,-0.00001c-0.00049,0.00049 -0.00071,0.00052 0.00039,0.00072c0.00109,0.0002 0.00142,0.0002 0.00096,0.00071c-0.00045,0.00052 -0.00077,0.00117 -0.00039,0.00122c0.00039,0.00008 0.00155,-0.00025 0.00167,0c0.00013,0.00027 -0.00026,0.00032 0.00104,0.00053c0.00129,0.00019 0.00155,0.00064 0.0018,0.00089c0.00026,0.00026 0.00103,0.0011 0.00052,0.0011c-0.00052,0 -0.0011,0.00064 -0.00071,0.00072c0.00039,0.00007 0.00155,-0.0002 0.00161,0c0.00007,0.00019 0.00072,0.00142 0.00136,0.00136c0.00065,-0.00007 0.00103,-0.00122 0.00135,-0.00155c0.00033,-0.00032 0.00161,-0.00052 0.00175,0.00006c0.00013,0.00058 0.00052,0.00117 0.00129,0.00156c0.00077,0.00038 0.00168,0.00077 0.00174,0.00045c0.00007,-0.00032 -0.00039,-0.00155 -0.00091,-0.00173c-0.00052,-0.00021 -0.00141,-0.0013 -0.00141,-0.00174c0,-0.00046 -0.00078,-0.00059 -0.00116,-0.00091c-0.00039,-0.00033 -0.00072,-0.00123 -0.00168,-0.00142zm-0.04775,-0.00953c-0.00042,0.00019 -0.00078,0.00238 0,0.00264c0.00077,0.00026 0.00122,-0.00103 0.00097,-0.00136c-0.00026,-0.00031 -0.00039,-0.00153 -0.00097,-0.00128zm0.03694,0.00547c-0.00059,-0.00025 -0.00168,0.00212 -0.00091,0.00232c0.00078,0.0002 0.00135,-0.00212 0.00091,-0.00232zm0.00129,-0.02207c0.00039,0 0.0009,-0.00026 0.0009,-0.00097c0,-0.00071 0.0009,0 0.00135,-0.00007s0.00071,-0.00052 0.0009,-0.00103c0.00003,-0.00007 0.00004,-0.00011 0.00005,-0.00014c-0.00002,0.00012 -0.00001,0.00047 0.00048,0.00059c0.00077,0.00019 0.00103,-0.00032 0.00103,-0.00052s0.00142,-0.00052 0.00168,-0.00071c0.00026,-0.00019 0.00129,-0.00052 0.00135,-0.00077c0.00007,-0.00026 0,-0.00174 0.00032,-0.00187c0.00032,-0.00013 0.00077,-0.00013 0.00026,-0.00103c-0.00052,-0.00091 -0.00052,-0.00174 -0.00116,-0.00136c-0.00048,0.00029 -0.00019,0.00142 -0.00058,0.00219s-0.00071,0.00148 -0.00097,0.00148s-0.00161,0.00052 -0.002,0.0009c-0.00038,0.00039 -0.00225,-0.00032 -0.00251,0c-0.00026,0.00032 -0.00077,0.00071 -0.0011,0.00097c-0.00033,0.00026 -0.00123,0.00007 -0.00104,0.00084c0.00018,0.00078 0.00064,0.00149 0.00103,0.00149zm0.00881,-0.00824c0.0009,-0.00007 0.00174,-0.00032 0.00174,-0.00032s0.00136,0.00007 0.00116,-0.00058c-0.0002,-0.00064 -0.00161,-0.00071 -0.00188,-0.00064c-0.00026,0.00007 -0.00071,-0.00071 -0.00122,-0.00058c-0.00048,0.00012 -0.00064,0.00078 -0.00064,0.00097c0,0.0002 -0.0018,0.00058 -0.00123,0.0011c0.00058,0.00051 0.00117,0.00013 0.00206,0.00006zm-0.0177,0.03501c0.00052,0.00032 0.00148,-0.0011 0.00175,-0.00065c0.00026,0.00046 -0.00007,0.00065 0.00038,0.00123c0.00046,0.00057 0.00129,0.00051 0.00129,0.00051s-0.00007,-0.00155 -0.00078,-0.00194c-0.00071,-0.00039 -0.00116,-0.00083 -0.00032,-0.00071c0.00084,0.00013 0.00129,-0.0002 0.0011,-0.00057c-0.0002,-0.00039 -0.00142,-0.0002 -0.00181,-0.00013s-0.00097,-0.00026 -0.00097,-0.00026c-0.00039,0.00012 -0.00032,0.00045 -0.00045,0.0011c-0.00013,0.00064 -0.00071,0.00109 -0.0002,0.00142zm0.03507,0.0128c-0.00116,-0.00026 -0.00039,0.0002 0,0.00077c0.00039,0.00058 0.00116,0.00088 0.00129,0.00025c0.00006,-0.00032 -0.00014,-0.00076 -0.00129,-0.00102zm0.00496,0.01563c-0.00039,0.00032 0,0.00046 -0.0011,0.0011c-0.0011,0.00065 -0.00245,0.00136 -0.00271,0.00193c-0.00026,0.00058 0.00026,0.00091 0.00129,0.00096c0.00103,0.00007 0.00077,0.00027 0.00148,-0.00052s0.00136,-0.00122 0.00219,-0.00187c0.00084,-0.00064 0.00084,-0.00161 0.00084,-0.00161s-0.00091,-0.00089 -0.00097,-0.00071c-0.00011,0.00031 -0.00065,0.00039 -0.00104,0.00071zm-0.01706,-0.01563c0.00007,-0.00058 -0.0011,-0.00058 -0.00167,-0.00104c-0.00058,-0.00045 -0.00064,-0.0018 -0.00097,-0.00258c-0.00032,-0.00077 -0.00096,-0.00129 -0.00161,-0.00199c-0.00064,-0.00072 -0.00096,-0.00233 -0.00115,-0.00219c-0.0002,0.00013 -0.00077,0.002 -0.00032,0.00258c0.00045,0.00058 -0.0002,0.00174 -0.00052,0.00252c-0.00033,0.00077 -0.0011,-0.00013 -0.00175,-0.00052c-0.00065,-0.00039 -0.00154,-0.00064 -0.00199,-0.0011c-0.00045,-0.00046 0.00078,-0.00168 0.00046,-0.00213c-0.00033,-0.00045 -0.00206,-0.00007 -0.00225,-0.00007c-0.0002,0 -0.00058,-0.00064 -0.00097,-0.00064c-0.00039,0 -0.00032,0.00129 -0.00032,0.00129s-0.00039,-0.00046 -0.00097,-0.00104c-0.00059,-0.00058 0.00006,0.00039 -0.00052,0.00097c-0.00059,0.00059 -0.0004,0.00039 -0.00065,0.00103c-0.00026,0.00065 -0.00084,0.00039 -0.00142,-0.00026c-0.00058,-0.00064 -0.0009,-0.00019 -0.00129,0c-0.00039,0.0002 -0.00071,0.0013 -0.0009,0.00155c-0.0002,0.00026 -0.00155,0.00059 -0.00187,0.00091c-0.00032,0.00031 -0.00045,0.00135 -0.00045,0.00161c0,0.00025 -0.00136,0.00012 -0.00181,0.00045c-0.00045,0.00032 -0.00115,0.00013 -0.00161,0.00013c-0.00045,0 -0.002,0.00122 -0.00251,0.00154c-0.00052,0.00033 -0.00052,0.00149 -0.00026,0.00181c0.00026,0.00032 0.00077,0.0011 0.00045,0.00122c-0.00032,0.00013 -0.00052,0.00103 0.00026,0.0018c0.00077,0.00078 0.00052,0.00097 0.00058,0.00136c0.00007,0.00039 0.00039,0.00052 0.00091,0.00116c0.00051,0.00064 -0.00091,0.00116 -0.0011,0.00155c-0.0002,0.00038 0.00046,0.00096 0.00084,0.00129c0.00039,0.00032 0.00136,0.00013 0.00193,-0.00007c0.00059,-0.0002 0.00123,-0.00072 0.00161,-0.00078c0.0004,-0.00007 0.00219,-0.00013 0.00219,-0.00013s0.00065,-0.00096 0.0011,-0.00148c0.00045,-0.00051 0.00186,-0.00007 0.00186,-0.00007s0.00059,-0.00038 0.00213,-0.00071c0.00155,-0.00033 0.0009,0.00032 0.00148,0.00052c0.00058,0.00019 0.00135,0.00031 0.0018,0.00064c0.00045,0.00032 0,0.00109 -0.00006,0.00142c-0.00007,0.00032 0.0011,0.00019 0.00115,-0.00013c0.00007,-0.00032 0.00039,-0.00064 0.00104,-0.00103c0.00064,-0.00039 0.00013,0.00057 0.00038,0.00116c0.00026,0.00058 0.00065,-0.00079 0.00065,-0.00013c0,0.0002 0.0002,0.00039 0.00026,0.00058c0.00007,0.0002 0.00091,0.00026 0.00091,0.0009c0,0.00065 0,0.00104 0.0002,0.00116c0.00019,0.00013 0.00122,0 0.00168,0.00078c0.00045,0.00077 0.00077,0.00007 0.00103,-0.00026c0.00026,-0.00032 0.00116,0.00013 0.00142,0.00039c0.00026,0.00025 0.00097,-0.00052 0.00194,-0.00078c0.00096,-0.00026 0.00084,-0.0002 0.0011,-0.00058c0.00026,-0.00039 0.00045,-0.00142 0.00103,-0.00219c0.00058,-0.00077 0.00136,-0.00212 0.00136,-0.00316c0,-0.00103 -0.00007,-0.00341 -0.00078,-0.0045c-0.00071,-0.0011 -0.00205,-0.0022 -0.00199,-0.00277zm-0.00238,0.01576c-0.00033,-0.00007 -0.00104,-0.00031 -0.00104,-0.00031c-0.00071,0.00071 0.00071,0.00071 0.00052,0.00142c-0.0002,0.00071 0.00097,0.00045 0.00129,0.00032c0.00032,-0.00014 0.0011,-0.00162 0.00097,-0.002c-0.00013,-0.0004 -0.00142,0.00064 -0.00174,0.00057zm0.02387,-0.00296c-0.00026,0 -0.00039,0.00032 -0.00096,0c-0.00059,-0.00032 -0.00046,-0.00019 -0.00084,-0.00084c-0.00039,-0.00064 -0.00046,-0.00148 -0.0011,-0.00115c-0.00026,0.00013 0,0.00084 0.00026,0.00109c0.00027,0.00026 0.00039,0.00116 0.00032,0.00142c-0.00006,0.00026 -0.00116,0.00058 -0.00065,0.0009c0.00052,0.00032 0.00149,0 0.00136,0.00039c-0.00013,0.00039 -0.00065,0.0009 -0.00007,0.00103c0.00058,0.00013 0.00077,-0.00045 0.00104,-0.00089c0.00026,-0.00047 0.00045,-0.00085 0.0009,-0.00111c0.00045,-0.00026 0,-0.00084 -0.00026,-0.00084zm0.00006,-0.01499c0.00084,0.00032 0.00232,-0.00116 0.00174,-0.00135c-0.00058,-0.0002 -0.00174,0.00135 -0.00174,0.00135zm-0.04446,-0.00637c-0.00015,0.00058 0.00097,0.00084 0.00103,0.0002c0.00006,-0.00065 -0.0009,-0.00071 -0.00103,-0.0002zm0.00174,-0.01718c-0.00032,0.00033 -0.00129,0.00097 -0.00142,0.00155c-0.00013,0.00058 0.00155,-0.00091 0.002,-0.00148c0.00046,-0.00059 0.00135,-0.00026 0.00154,-0.00059c0.0002,-0.00032 0.0002,-0.00032 0.0002,-0.00032s-0.00071,-0.00013 -0.00129,-0.00032c-0.00059,-0.0002 -0.00129,0.00051 -0.00097,-0.00052c0.00032,-0.00103 0.00129,-0.00084 0.0011,-0.00161c-0.0002,-0.00077 -0.00084,-0.00097 -0.00104,-0.00097c-0.00045,0 0.00007,0.00071 -0.00058,0.00116c-0.00064,0.00045 -0.00136,0.00064 -0.00097,0.00142c0.00039,0.00077 0.00174,0.00135 0.00142,0.00167zm-0.00508,0.01641c0.00007,-0.00038 -0.00071,-0.00096 -0.00103,-0.00096c-0.00033,0 -0.00193,-0.00039 -0.00193,-0.00039c-0.00029,0.00012 -0.00068,0.00023 -0.00079,0.00039c-0.00004,-0.00006 -0.00011,-0.00012 -0.00025,-0.0002c-0.00071,-0.00038 -0.00155,0 -0.00181,-0.00051c-0.00025,-0.00052 -0.00064,-0.00052 -0.0009,-0.0002c-0.00047,0.00059 0.00013,0.00103 0.00032,0.00116c0.00019,0.00012 0.00091,0.00026 0.00155,0.0002c0.0004,-0.00004 0.00091,-0.00014 0.00105,-0.0003c0.00002,0.00007 0.00008,0.00014 0.00018,0.00022c0.00052,0.00046 0.00084,0.00065 0.00161,0.00058c0.00078,-0.00005 0.00194,0.0004 0.00201,0.00001zm-0.00187,-0.0038c0.00033,0 0.00097,0 0.00142,0.00013c0.00045,0.00013 0.00193,0.00025 0.00187,-0.00032c-0.00007,-0.00058 -0.00019,-0.00149 0.00045,-0.00206c0.00065,-0.00059 0.00129,-0.0009 0.00097,-0.00174c-0.00032,-0.00084 -0.00097,-0.00136 -0.00052,-0.00175c0.00045,-0.00038 0.00096,-0.00051 0.00096,-0.00083c0,-0.00033 -0.00109,0.0009 -0.00122,-0.00123c-0.00003,-0.00046 -0.00103,0.00013 -0.0011,0.00058c-0.00006,0.00046 0.00071,0.00084 -0.00052,0.00084c-0.00123,0 -0.00129,0.00097 -0.00155,0.00116c-0.00026,0.0002 -0.00052,0.00026 -0.00104,0.00038c-0.00051,0.00013 -0.00064,0.00065 -0.00077,0.00097c-0.00013,0.00032 -0.00103,-0.00058 -0.00129,-0.00032c-0.00026,0.00026 -0.00007,0.00148 0.00039,0.00251c0.00046,0.00104 0.00162,0.00168 0.00194,0.00168zm-0.00451,-0.00032c0.00033,-0.00039 0.00019,-0.00096 -0.00032,-0.0009c-0.00052,0.00007 -0.00097,-0.00084 -0.0018,-0.00142c-0.00084,-0.00057 -0.00148,-0.00097 -0.00226,-0.0018c-0.00077,-0.00084 -0.00174,-0.00136 -0.00225,-0.0018c-0.00052,-0.00046 -0.00129,-0.00065 -0.00161,-0.00058c-0.0008,0.00016 0.00116,0.00155 0.00136,0.00173c0.0002,0.00021 0.00194,0.00168 0.00194,0.00239s0.00116,0.00238 0.00148,0.00264c0.00032,0.00026 0.00193,0.00122 0.00219,0.00174c0.00026,0.00052 0.00084,0.00065 0.00084,-0.00007c-0.00001,-0.00071 0.00013,-0.00155 0.00044,-0.00194zm-0.00489,-0.00727c0.00032,0.00116 0.00097,0.00232 0.00122,0.00278c0.00026,0.00045 0.00136,0.00109 0.00174,0.00141c0.00039,0.00032 0.00096,-0.00012 0.00072,-0.00051c-0.00026,-0.00039 -0.00078,-0.00096 -0.00084,-0.00142c-0.00007,-0.00046 -0.00039,-0.00117 -0.00091,-0.00194c-0.00051,-0.00077 -0.00096,-0.00096 -0.00129,-0.00148c-0.00032,-0.00052 -0.00148,-0.00149 -0.00148,-0.00149c-0.00051,0.00007 -0.00051,0.00103 -0.00026,0.00136c0.00025,0.00032 0.00077,0.00013 0.00109,0.00129z" stroke-width="0" stroke="#000" fill="#FFB27C"/>
 </g>
</svg>
