<svg width="16" height="16" xmlns="http://www.w3.org/2000/svg">
 <g id="Layer_1">
  <title>Layer 1</title>
  <path stroke="null" id="svg_1" d="m8,1.53838c3.66034,0 6.62506,2.96471 6.62506,6.62506a6.63582,6.63582 0 0 1 -4.51332,6.28552c-0.33125,0.06625 -0.45547,-0.14078 -0.45547,-0.31469c0,-0.2236 0.00828,-0.93579 0.00828,-1.82189c0,-0.6211 -0.20703,-1.0186 -0.44719,-1.22564c1.47408,-0.16563 3.02268,-0.72876 3.02268,-3.27112c0,-0.72876 -0.25672,-1.31673 -0.67907,-1.78048c0.06625,-0.16563 0.29813,-0.84469 -0.06625,-1.75564c0,0 -0.55485,-0.18219 -1.82189,0.67907c-0.53,-0.14906 -1.09313,-0.2236 -1.65626,-0.2236c-0.56313,0 -1.12626,0.07453 -1.65626,0.2236c-1.26704,-0.85298 -1.82189,-0.67907 -1.82189,-0.67907c-0.36438,0.91095 -0.1325,1.59001 -0.06625,1.75564c-0.42235,0.46375 -0.67907,1.06001 -0.67907,1.78048c0,2.53408 1.54033,3.1055 3.0144,3.27112c-0.19047,0.16563 -0.36438,0.45547 -0.42235,0.8861c-0.38094,0.17391 -1.33329,0.45547 -1.92955,-0.54657c-0.12422,-0.19875 -0.49688,-0.68735 -1.0186,-0.67907c-0.55485,0.00828 -0.2236,0.31469 0.00828,0.43891c0.28156,0.15735 0.60454,0.74532 0.67907,0.93579c0.1325,0.37266 0.56313,1.08485 2.22768,0.77844c0,0.55485 0.00828,1.07657 0.00828,1.23392c0,0.17391 -0.12422,0.37266 -0.45547,0.31469a6.62092,6.62092 0 0 1 -4.52988,-6.28552c0,-3.66034 2.96471,-6.62506 6.62506,-6.62506z"/>
 </g>

</svg>
