<svg width="16" height="16" xmlns="http://www.w3.org/2000/svg">
 <g id="Layer_1">
  <title>Layer 1</title>
  <path fill="#6D97AB" id="svg_1" d="m13.96326,1.69274c-1.04306,-0.93973 -3.40715,0.18795 -4.71097,0.94957c-0.37393,-0.05904 -0.76606,-0.09102 -1.17491,-0.09102c-1.64773,0 -2.97763,0.48463 -3.98821,1.39878c-1.14933,1.0524 -1.78648,2.43052 -1.78648,4.02314c0,0.01378 0.00049,0.02755 0.00049,0.04133c1.61723,-2.53384 4.10432,-3.83274 4.76361,-4.17566c0.10431,-0.04871 0.1663,0.07626 0.06937,0.12448c-0.00738,0.02066 -0.00738,0 0,0c-1.10898,0.66421 -3.16557,2.58747 -4.4999,5.35599l-0.00148,-0.00344c-0.84478,1.74515 -1.55819,4.19633 -0.13137,5.09621c1.08094,0.67995 3.016,-0.12202 4.57321,-1.14047c0.37589,0.05314 0.77098,0.08118 1.1882,0.08118c2.87332,0 4.88908,-1.58574 5.60839,-3.89866l-3.94688,-0.00689c-0.16581,0.81722 -0.7203,1.25363 -1.58574,1.25363c-1.08734,0 -1.83469,-0.59582 -1.8834,-1.97393l7.49229,-0.00689c0.01378,-0.28438 -0.02066,-0.48463 -0.02066,-0.70652c0,-2.58353 -1.54638,-4.60273 -4.06152,-5.24627c1.02387,-0.63666 2.93925,-1.57885 3.86127,-0.82706c0.69225,0.56089 0.31144,1.73826 0.14514,2.22289c-0.02755,0.12497 0.11808,0.14563 0.14563,0.02804c0.34539,-0.87134 0.44969,-2.04183 -0.05609,-2.49841zm-7.2453,11.51789c-1.21477,0.72571 -2.88956,1.24921 -3.70924,0.6342c-0.61156,-0.46003 -0.34244,-1.70628 0.19582,-2.92154c0.32669,0.48807 0.73555,0.92793 1.21673,1.29398c0.65043,0.48906 1.41452,0.82018 2.29669,0.99336zm-0.27454,-6.21405c0.02066,-1.19804 0.87922,-1.7171 1.77959,-1.7171c0.94859,0 1.7171,0.54711 1.7171,1.7171l-3.49669,0z" stroke="null"/>
 </g>
</svg>
