<svg width="16" height="16" xmlns="http://www.w3.org/2000/svg">
 <g id="Layer_1">
  <title>Layer 1</title>
  <path stroke-width="0" stroke="#000" id="svg_1" d="m1.87363,8.18542c1.60854,0 3.12093,0.62973 4.25705,1.77212c1.13873,1.14291 1.7648,2.66575 1.7648,4.28632l2.47971,0c0,-4.70753 -3.81441,-8.53657 -8.50208,-8.53657l0,2.47814l0.00052,0zm0.00314,-4.39397c5.73443,0 10.39858,4.69028 10.39858,10.45502l2.47866,0c0,-7.13132 -5.77676,-12.93368 -12.87776,-12.93368l0,2.47866l0.00052,0zm3.42822,8.72262c0,0.94851 -0.76874,1.71777 -1.71672,1.71777s-1.71672,-0.76926 -1.71672,-1.71777c0,-0.94746 0.76874,-1.71672 1.71672,-1.71672s1.71672,0.76874 1.71672,1.71672z" fill="#FFB27C"/>
 </g>
</svg>
